<svg xmlns="http://www.w3.org/2000/svg" width="280" height="180" viewBox="0 0 280 180">
  <defs>
    <style>
      .a, .b {
        fill: none;
        stroke: #0cc7ab;
        stroke-miterlimit: 10;
      }

      .a {
        stroke-width: 2px;
      }
    </style>
  </defs>
  <title>web copie</title>
  <g>
    <circle class="a" cx="139.6745" cy="90.0922" r="14"/>
    <path class="b" d="M139.6748,67.7149A47.9056,47.9056,0,0,0,99.12,90.0923a47.9372,47.9372,0,0,0,81.1089,0A47.9054,47.9054,0,0,0,139.6748,67.7149Z"/>
    <path class="b" d="M106.6391,103.26a47.9139,47.9139,0,0,0,64.3705,1.5431"/>
    <path class="b" d="M168.167,72.1045A47.9183,47.9183,0,0,0,105.46,77.0859"/>
    <path class="b" d="M145.267,72.5593a18.4445,18.4445,0,0,1,11.8493,11.6621"/>
    <path class="a" d="M140,158.2213c46.53-9.2063,63.5375-55.2936,63.5375-122.2259C178.1225,35.9953,140,21.7787,140,21.7787S101.8775,35.9953,76.4625,35.9953C76.4625,102.9276,93.47,149.0149,140,158.2213Z"/>
    <path class="b" d="M111.7382,38.11c-9.3533,1.8122-19.747,4.6562-29.5207,4.6562,0,60.87,15.4667,100.7329,57.7825,109.1054a58.6116,58.6116,0,0,0,27.3957-13.0455"/>
  </g>
</svg>
