<svg xmlns="http://www.w3.org/2000/svg" width="280" height="180" viewBox="0 0 280 180">
  <defs>
    <style>
      .a, .b {
        fill: none;
        stroke: #0cc7ab;
      }

      .a {
        stroke-linejoin: round;
        stroke-width: 2px;
      }

      .b {
        stroke-miterlimit: 10;
      }
    </style>
  </defs>
  <title>web copie 4</title>
  <g>
    <g>
      <path class="a" d="M95,109H74.3113C72.3445,109,70,107.6823,70,105.7158v-2.5a9.9625,9.9625,0,0,1,7.5366-9.33l11.64-2.9882a18.4951,18.4951,0,0,1,5.567-.5555,19.4981,19.4981,0,0,1,4.2484.5929l10.3123,2.9116c4.2075,1.1492,6.6961,4.9492,6.6961,9.311v2.5586c0,1.9666-.6482,3.2842-2.6145,3.2842H98.75c7.2192,15,23.4619,26.6665,42,26.6665S175.531,124,182.75,109h24.439c1.9668,0,2.8108-1.3177,2.8108-3.2842v-2.5a9.35,9.35,0,0,0-6.8221-9.3528l-11.1752-3.1816A19.8728,19.8728,0,0,0,186.6636,90h.5662a18.5432,18.5432,0,0,0-4.4846.7638l-11.1807,2.997A10.1578,10.1578,0,0,0,164,103.1572v2.5586c0,1.9666,2.1487,3.2842,4.115,3.2842H179"/>
      <path class="a" d="M98.8215,63.832a11.38,11.38,0,1,0,3.06,2.1809,45.8237,45.8237,0,0,1,77.79.0786,11.2441,11.2441,0,1,1-2.8009,4.7766"/>
    </g>
    <circle class="b" cx="141.7142" cy="90.2489" r="18.605"/>
  </g>
</svg>
